Patient4_TMGait_0pt2_01_left_18_EMG.mot
version=1
nRows=20
nColumns=33
inDegrees=no
endheader
time	1LAddLong	2LGlutMax	3LGlutMed	4LIliopsoas	5LSemiMemb	6LBicFemLong	7LRecFem	8LVastMed	9LVastLat	10LGasMed	11LTibAnt	12lTibPost	13LPeroneusLong	14LSol	15LExtDigLong	16LFlexDigLong	17RAddLong	18RGlutMax	19RGlutMed	20RIliopsoas	21RSemiMemb	22RBicFemLong	23RRecFem	24RVastMed	25RVastLat	26RGasMed	27RTibAnt	28RTibPost	29RPeroneusLong	30RSol	31RExtDigLong	32RFlexDigLong
43.853	0.015411	-0.067139	0.029907	0.004425	0.015869	0.018768	-0.022278	0.005798	-0.00351	0.011292	-0.20691	-0.003357	0.050812	-0.062103	-0.06897	-0.005646	0.018005	0.21332	0.071716	-0.086823	0.19562	-0.023956	-0.036774	-0.10605	-0.17609	-0.003052	0.10254	-0.019684	-0.48508	0.046997	0.003204	-0.00412
43.854	0.011292	-0.075226	0.052795	-0.007019	0.006866	0.029907	-0.04364	0.002899	-0.005341	0.002289	-0.13947	0.000763	0.072479	0.033722	-0.081024	0.000153	0.02121	0.14496	-0.71518	-0.12131	-0.023499	0.10864	0.089111	0.093842	-0.21927	-0.001068	-0.15976	-0.006866	1.8306	0.026398	0.007324	-0.008545
43.855	0.00946	-0.085754	0.019836	0.011444	0.014648	0.025635	-0.045929	0.006561	-0.002747	-0.00946	0.07431	0.000458	0.054626	0.072327	0.30365	0.005341	0.046997	0.11231	-0.19302	-0.083008	-0.054932	-0.14648	0.17212	0.003662	-0.24155	-0.027008	-0.032349	-0.015869	1.268	-0.009308	0.005951	-0.017395
43.856	0.016174	-0.074158	-0.001373	0.000305	0.0177	0.049744	-0.053406	0.005951	-0.022888	-0.015717	0.098114	-0.001984	0.038147	0.072021	0.19348	0.003815	0.076904	0.18234	0.81909	-0.049744	-0.21378	-0.24063	0.18936	-0.10941	-0.042725	-0.03891	0.11215	-0.013733	-0.089417	-0.057526	0.003204	-0.019073
43.857	0.019073	-0.068207	-0.018616	0.007935	0.011749	0.044556	-0.10513	0.002899	-0.002441	-0.018311	-0.081787	-0.001831	0.053864	0.030365	0.13763	0.005798	0.089874	0.18204	0.84366	0.005493	-0.22903	-0.19577	0.16388	-0.13123	0.094299	-0.014801	0.037689	-0.014648	-1.1769	0.016785	0.001984	-0.020599
43.858	0.019836	-0.068207	0.043793	-0.002289	0.0177	0.039368	-0.16327	-0.001373	-0.005798	-0.024567	-0.065613	-0.005951	0.10574	0.000763	-0.24094	0.000153	0.099182	0.13534	-0.30472	0.24551	-0.27069	0.11429	0.23514	0.12772	0.27512	-0.003357	-0.09491	-0.014801	0.006714	0.21179	0.003967	-0.02655
43.859	0.017853	-0.064087	0.031586	-0.014496	0.014954	0.016632	-0.16571	0.005035	0.005951	0.012207	0.008545	-0.002594	0.016479	-0.085144	-0.35095	-0.014801	0.10117	0.15549	-0.51239	0.16602	-0.39749	0.40817	0.14771	0.50415	0.26108	0.037537	-0.042877	-0.014801	-0.54062	0.16144	0.005035	-0.018311
43.86	0.008087	-0.06958	0.041809	0.005035	0.013733	0.036621	-0.15732	0.003662	-0.005798	0.01297	0.02655	-0.014343	-0.004883	-0.079346	-0.35431	-0.029602	0.095673	0.17639	-0.60196	-0.050659	-0.080719	0.32761	-0.02121	0.14664	-0.26428	0.055237	-0.092926	-0.010681	-0.7077	0.040741	0.002747	-0.012512
43.861	0.036316	-0.051727	0.053406	0.006561	0.011902	0.031128	-0.13626	-0.003815	-0.003967	0.005188	-0.058289	-0.005646	0.015411	-0.037537	-0.11871	-0.009003	0.049744	0.25742	0.63965	-0.2214	0.050659	0.071869	-0.16647	0.019531	-0.7225	0.033417	-0.077362	-0.010681	-0.71259	-0.039825	0.004883	-0.019684
43.862	0.003052	-0.049744	0.10773	0.009766	0.019226	0.044556	-0.10788	-0.006104	0.002441	0.005188	-0.02533	-0.000916	-0.001984	-0.026855	-0.23453	-0.003662	0.044403	0.21637	0.053406	-0.10971	-0.062714	0.033112	-0.32501	-0.25284	-0.56229	0.023193	-0.012054	-0.002747	-1.058	0.20142	0.001984	-0.012512
43.863	0.006409	-0.061188	0.097198	0.015564	0.023041	0.037537	-0.07843	-0.00946	0.003204	-0.001221	-0.014191	-0.001526	0.029297	-0.069733	-0.050201	0.005341	-0.032959	0.11414	-1.1443	0.14526	-0.083618	0.053406	-0.65781	-0.2504	-0.42252	-0.003662	-0.044861	-0.012207	0.60165	0.39414	0.004425	-0.024109
43.864	0.009613	-0.054932	0.10849	0.025635	0.013275	0.035095	-0.06012	-0.012054	0.00946	0.001831	-0.079651	-0.001373	0.037689	-0.068054	0.026093	-0.003357	-0.15778	0.10178	-0.035706	0.025787	-0.075531	-0.044861	-0.82687	-0.075073	-0.15762	-0.029297	-0.042572	-0.025482	0.6958	0.27741	0.001678	-0.016022
43.865	0.012665	-0.045319	0.078888	0.023041	0.019379	0.03891	-0.053406	-0.012817	0	0.003815	-0.043488	0.000763	0.03479	-0.002899	0.224	0.000305	-0.11902	0.13382	0.67139	-0.033569	0.14008	-0.24994	-0.45609	0.14679	0.26032	-0.022583	-0.009918	-0.01709	-0.056458	0.087891	0.001221	-0.016174
43.866	0.014496	-0.052338	0.082397	-0.005798	0.016937	0.033569	-0.059967	-0.007019	0.009766	0.001984	0.028992	-0.00473	0.054932	0.029297	0.24139	-0.005341	-0.045319	0.11261	0.42007	-0.058746	0.17914	-0.28153	0.09613	0.32608	0.59601	-0.029755	0.035858	0.010376	-0.40436	-0.15472	0	-0.012817
43.867	0.018158	-0.009918	0.11261	0.008087	0.015411	0.037994	-0.06012	-0.006866	0.002136	-0.019684	0.080414	-0.001984	0.066223	0.004578	0.071106	-0.004425	0.00885	0.10056	0.17532	-0.053253	0.12482	-0.177	0.32989	0.72022	0.83649	-0.010376	0.027466	-0.001221	-0.2533	-0.16861	0.001373	-0.016022
43.868	0.019379	0.003204	0.093384	0.023956	0.019836	0.027313	-0.055237	-0.000763	0.005188	-0.012512	0.11322	0.007782	0.046234	-0.024261	-0.08194	-0.006104	0.003357	0.12039	0.61539	-0.078735	0.099792	-0.085907	0.27359	0.44678	0.57861	-0.014343	-0.050659	-0.033417	-0.044708	-0.12466	0.003357	-0.009003
43.869	0.012512	0.00885	0.029297	0.033722	0.027313	0.034332	-0.042267	-0.00061	0.001221	-0.011292	0.049896	0.007477	0.030365	-0.050354	-0.06897	0.002441	0.021057	0.14969	0.79788	-0.084839	0.18219	-0.073547	0.29602	0.27664	0.2066	-0.018005	-0.042572	0.000458	0.65765	-0.040894	0.000916	-0.0177
43.87	0.009613	-0.02533	0.00473	0.030823	0.016785	0.023193	-0.036926	0.000458	0.002136	0.006104	-0.00351	0.002441	0.037994	-0.069885	-0.029602	0.003815	-0.010071	0.083923	0.13611	0.035553	0.24933	0.02655	0.33035	0.05188	0.04837	0.004272	-0.018311	0.001221	0.45639	-0.030975	0.001678	-0.013123
43.871	0.012054	-0.019684	0.028534	0.009918	0.016937	0.013123	-0.036316	-0.001373	0.008392	0.002594	0.021515	0.005493	0.015717	-0.086823	0.005798	0.007477	-0.06485	0.074768	-0.19394	0.026093	0.22156	0.099945	0.14557	0.16098	0.029602	0.001831	0.007019	-0.032501	0.24338	0.038147	-0.000458	-0.012665
43.872	0.016327	-0.013123	-0.011597	0.004883	0.01358	0.005188	-0.033417	-0.007782	0.01236	-0.015411	0.005188	0.000916	0.032196	-0.039978	0.44525	0.003052	-0.097351	0.10895	0.032043	-0.097504	-0.14282	0.11124	-0.11749	0.21149	0.10986	-0.010071	0.012665	0.032654	0.97855	0.059204	0.004578	-0.021515
